<svg width="35" height="34" viewBox="0 0 35 34" fill="none" xmlns="http://www.w3.org/2000/svg">
<path d="M19.4535 13.4025C19.2363 13.4025 19.0597 13.2262 19.0597 13.0088V12.3396C19.0597 12.1224 19.236 11.9459 19.4535 11.9459C19.6707 11.9459 19.8472 12.1221 19.8472 12.3396V13.0088C19.8472 13.2262 19.6707 13.4025 19.4535 13.4025Z" fill="#103E13"/>
<path d="M17.798 13.4025C17.5809 13.4025 17.4043 13.2262 17.4043 13.0088V12.3396C17.4043 12.1224 17.5806 11.9459 17.798 11.9459C18.0152 11.9459 18.1918 12.1221 18.1918 12.3396V13.0088C18.1915 13.2262 18.0155 13.4025 17.798 13.4025Z" fill="#103E13"/>
<path d="M16.1427 13.4025C15.9256 13.4025 15.749 13.2262 15.749 13.0088V12.3396C15.749 12.1224 15.9253 11.9459 16.1427 11.9459C16.3599 11.9459 16.5365 12.1221 16.5365 12.3396V13.0088C16.5365 13.2262 16.3602 13.4025 16.1427 13.4025Z" fill="#103E13"/>
<path d="M19.4535 16.1389C19.2363 16.1389 19.0597 15.9626 19.0597 15.7451V15.0762C19.0597 14.8591 19.236 14.6825 19.4535 14.6825C19.6707 14.6825 19.8472 14.8588 19.8472 15.0762V15.7451C19.8472 15.9626 19.6707 16.1389 19.4535 16.1389Z" fill="#103E13"/>
<path d="M17.798 16.1389C17.5809 16.1389 17.4043 15.9626 17.4043 15.7451V15.0762C17.4043 14.8591 17.5806 14.6825 17.798 14.6825C18.0152 14.6825 18.1918 14.8588 18.1918 15.0762V15.7451C18.1915 15.9626 18.0155 16.1389 17.798 16.1389Z" fill="#103E13"/>
<path d="M16.1427 16.1389C15.9256 16.1389 15.749 15.9626 15.749 15.7451V15.0762C15.749 14.8591 15.9253 14.6825 16.1427 14.6825C16.3599 14.6825 16.5365 14.8588 16.5365 15.0762V15.7451C16.5365 15.9626 16.3602 16.1389 16.1427 16.1389Z" fill="#103E13"/>
<path d="M19.4535 18.8753C19.2363 18.8753 19.0597 18.6991 19.0597 18.4816V17.8124C19.0597 17.5953 19.236 17.4187 19.4535 17.4187C19.6707 17.4187 19.8472 17.595 19.8472 17.8124V18.4816C19.8472 18.6991 19.6707 18.8753 19.4535 18.8753Z" fill="#103E13"/>
<path d="M17.798 18.8753C17.5809 18.8753 17.4043 18.6991 17.4043 18.4816V17.8124C17.4043 17.5953 17.5806 17.4187 17.798 17.4187C18.0152 17.4187 18.1918 17.595 18.1918 17.8124V18.4816C18.1915 18.6991 18.0155 18.8753 17.798 18.8753Z" fill="#103E13"/>
<path d="M16.1427 18.8753C15.9256 18.8753 15.749 18.6991 15.749 18.4816V17.8124C15.749 17.5953 15.9253 17.4187 16.1427 17.4187C16.3599 17.4187 16.5365 17.595 16.5365 17.8124V18.4816C16.5365 18.6991 16.3602 18.8753 16.1427 18.8753Z" fill="#103E13"/>
<path d="M19.4535 21.6112C19.2363 21.6112 19.0597 21.4349 19.0597 21.2174V20.5483C19.0597 20.3311 19.236 20.1545 19.4535 20.1545C19.6707 20.1545 19.8472 20.3308 19.8472 20.5483V21.2174C19.8472 21.4349 19.6707 21.6112 19.4535 21.6112Z" fill="#103E13"/>
<path d="M17.798 21.6112C17.5809 21.6112 17.4043 21.4349 17.4043 21.2174V20.5483C17.4043 20.3311 17.5806 20.1545 17.798 20.1545C18.0152 20.1545 18.1918 20.3308 18.1918 20.5483V21.2174C18.1915 21.4349 18.0155 21.6112 17.798 21.6112Z" fill="#103E13"/>
<path d="M16.1427 21.6112C15.9256 21.6112 15.749 21.4349 15.749 21.2174V20.5483C15.749 20.3311 15.9253 20.1545 16.1427 20.1545C16.3599 20.1545 16.5365 20.3308 16.5365 20.5483V21.2174C16.5365 21.4349 16.3602 21.6112 16.1427 21.6112Z" fill="#103E13"/>
<path d="M19.4535 24.3475C19.2363 24.3475 19.0597 24.1713 19.0597 23.9538V23.2849C19.0597 23.0677 19.236 22.8912 19.4535 22.8912C19.6707 22.8912 19.8472 23.0675 19.8472 23.2849V23.9538C19.8472 24.171 19.6707 24.3475 19.4535 24.3475Z" fill="#103E13"/>
<path d="M17.798 24.3475C17.5809 24.3475 17.4043 24.1713 17.4043 23.9538V23.2849C17.4043 23.0677 17.5806 22.8912 17.798 22.8912C18.0152 22.8912 18.1918 23.0675 18.1918 23.2849V23.9538C18.1915 24.171 18.0155 24.3475 17.798 24.3475Z" fill="#103E13"/>
<path d="M16.1427 24.3475C15.9256 24.3475 15.749 24.1713 15.749 23.9538L15.7493 23.2849C15.7493 23.0677 15.9255 22.8912 16.143 22.8912C16.3602 22.8912 16.5368 23.0675 16.5368 23.2849V23.9538C16.5365 24.171 16.3602 24.3475 16.1427 24.3475Z" fill="#103E13"/>
<path d="M4.89456 27.0707C4.89456 27.2879 5.07084 27.4645 5.28831 27.4645H29.2663C29.4835 27.4645 29.6601 27.2882 29.6601 27.0707C29.6601 26.8535 29.4838 26.677 29.2663 26.677H28.5385V15.3719C28.5385 15.1547 28.3622 14.9782 28.1447 14.9782L21.716 14.9784V6.82807C21.716 6.69024 21.6441 6.56284 21.5266 6.49144C21.4093 6.41978 21.2627 6.41538 21.1408 6.47881L13.8318 10.2842C13.7014 10.352 13.6201 10.4866 13.6201 10.6335V17.7527H6.54661C6.32942 17.7527 6.15286 17.9289 6.15286 18.1464V26.677H5.28743C5.07024 26.6768 4.89423 26.8531 4.89423 27.0705L4.89456 27.0707ZM21.7162 20.9419H27.7514V26.6773L21.7162 26.677V20.9419ZM21.7162 18.2057H27.7514V20.1547L21.7162 20.1544V18.2057ZM21.7162 15.7655H27.7514V17.4188H21.7162V15.7655ZM14.4072 10.8726L20.9284 7.4771V26.6767H14.4072V10.8726ZM8.8868 23.5322C8.8868 22.715 9.53425 22.05 10.3302 22.05C11.1262 22.05 11.774 22.7147 11.774 23.5322V26.6772H8.8868V23.5322ZM6.94034 18.54H13.62V26.677H12.5615V23.532C12.5615 22.2808 11.5609 21.2626 10.3302 21.2626C9.10013 21.2626 8.09959 22.2805 8.09959 23.532V26.677H6.94034V18.54Z" fill="#103E13"/>
</svg>
