<svg width="88" height="43" viewBox="0 0 88 43" fill="none" xmlns="http://www.w3.org/2000/svg">
<path fill-rule="evenodd" clip-rule="evenodd" d="M23.2878 3.43886C23.4595 6.04944 23.3166 7.37454 22.605 9.76781C22.1099 11.4327 21.7047 13.3745 21.7047 14.0829C21.7047 17.01 23.7867 19.4793 26.6881 19.9932L28.1945 20.2602L27.0623 20.8201C26.059 21.3167 25.7178 21.2915 24.0652 20.6015C21.7182 19.621 20.812 18.3239 20.4818 15.472C20.2279 13.2809 20.177 13.2076 18.5257 12.6557C17.5932 12.344 15.0182 11.8345 12.8035 11.5239L8.77672 10.9592L12.5915 11.1289C14.6897 11.2222 17.3511 11.5724 18.5057 11.9065C19.6608 12.2407 20.6564 12.466 20.7187 12.4076C21.0659 12.0798 22.1387 7.28009 21.9344 6.96833C21.4393 6.21153 17.288 6.07385 14.0751 6.70739C9.34301 7.64108 -0.730612 12.4192 0.508775 13.1424C0.775811 13.2981 2.36362 14.0705 4.03789 14.8581C6.36365 15.9527 7.9807 17.1597 10.8961 19.9772C15.3679 24.2991 16.8035 25.1079 20.0092 25.1127C21.8403 25.1151 22.7372 24.8762 24.1906 23.9985C25.4639 23.2293 26.1773 23.01 26.4787 23.2946C26.7427 23.5439 27.9652 23.6159 29.553 23.4759C31.8677 23.2717 32.2996 23.3478 33.0931 24.097C34.5393 25.4625 34.2274 25.7831 31.7223 25.5053C29.0422 25.208 26.6512 25.8327 25.7327 27.071C25.3821 27.5432 25.0956 28.7587 25.0956 29.772C25.0956 31.2072 25.3241 31.8171 26.129 32.5311C27.4777 33.7273 30.48 34.0727 32.2568 33.2354C33.2949 32.7468 33.8209 32.7123 34.8183 33.0677C36.5311 33.6781 37.8086 32.6235 37.8184 30.5912L37.8256 29.1525L38.7789 30.7533C39.3074 31.6418 40.3891 32.6755 41.2089 33.0765C43.0883 33.9954 45.9719 33.7757 47.2816 32.6135C48.2124 31.7879 48.2269 31.7875 48.7423 32.5675C49.3692 33.5152 50.645 33.5868 51.5572 32.726C52.1167 32.1977 52.2231 30.861 52.2231 24.3703C52.2231 15.9287 52.1209 15.5665 49.8113 15.8166C48.6414 15.9431 48.6181 15.9967 48.4956 18.847C48.4273 20.4431 48.2514 21.7485 48.1052 21.7485C47.959 21.7485 47.4703 21.4336 47.0197 21.0482C46.4551 20.5659 45.4976 20.3478 43.9441 20.3478C41.2623 20.3478 39.7771 21.2231 38.4915 23.5619L37.6298 25.1295L37.347 23.8228C36.9812 22.1343 35.9585 21.093 34.0956 20.5127L32.601 20.0468L33.6882 19.4241C35.4646 18.4064 36.54 16.1604 36.54 13.4682C36.54 10.09 35.051 7.44898 31.6545 4.80398C29.1783 2.87536 24.3763 0.137112 23.4705 0.137112C23.234 0.137112 23.1589 1.48903 23.2878 3.43886ZM28.1521 5.54077C30.7525 9.46925 31.8219 14.5623 30.9047 18.6469C30.6966 19.5722 30.7258 20.1477 30.9806 20.1477C31.8334 20.1477 32.4467 15.6861 31.9648 12.9847C31.4583 10.1444 29.4305 5.90056 28.0114 4.71033C27.167 4.00236 27.1785 4.06999 28.1521 5.54077ZM6.98334 11.6204C7.39576 11.722 7.96798 11.7152 8.25494 11.6056C8.5419 11.4959 8.2045 11.4131 7.50512 11.4211C6.80574 11.4291 6.57092 11.5187 6.98334 11.6204ZM68.4148 15.8254C68.135 16.0896 67.9062 16.6839 67.9062 17.1461C67.9062 18.2787 68.6928 18.9471 70.0255 18.9471C71.3581 18.9471 72.1448 18.2787 72.1448 17.1461C72.1448 16.0135 71.3581 15.3452 70.0255 15.3452C69.4193 15.3452 68.6945 15.5613 68.4148 15.8254ZM63.5263 16.0123C63.3708 16.1588 63.2436 17.5095 63.2436 19.0139C63.2436 21.7554 62.9478 22.2584 61.9813 21.1586C60.4448 19.4109 55.8857 20.1405 54.0355 22.4305C52.986 23.73 52.8589 24.2183 52.8589 26.9513C52.8589 29.6739 52.9882 30.175 54.0198 31.4525C55.9196 33.8041 59.9947 34.4441 62.0246 32.7095C62.7651 32.0768 62.8731 32.0756 63.595 32.6923C64.5055 33.4703 65.8322 33.552 66.5498 32.8744C67.2682 32.1961 67.2682 16.904 66.5498 16.2256C66.006 15.7122 63.9947 15.5701 63.5263 16.0123ZM68.3194 21.1742C68.0922 21.7389 67.9062 24.3103 67.9062 26.8885C67.9062 30.4832 68.06 31.7831 68.5661 32.465C69.3346 33.5016 70.5375 33.6144 71.4658 32.738C72.0545 32.1821 72.2571 32.1905 73.5097 32.8208C74.4189 33.2782 75.8782 33.5264 77.7259 33.5376C80.1529 33.5524 80.7074 33.4167 81.6551 32.5771L82.7589 31.599L83.4099 32.477C84.5679 34.0378 87.404 33.2402 87.404 31.3536C87.404 29.7332 84.8727 28.701 83.674 29.8328C83.2785 30.2062 83.1654 30.1574 83.1654 29.6127C83.1654 27.8818 81.926 26.6327 79.2548 25.6714C77.1541 24.9154 76.5653 24.5168 76.4522 23.7744C76.3148 22.8743 76.3873 22.8471 78.1476 23.1309C81.8984 23.7364 82.5173 23.6508 82.658 22.5061C82.7627 21.6541 82.5295 21.3607 81.3864 20.9053C80.6162 20.5987 78.8741 20.3478 77.5144 20.3478C75.2581 20.3478 74.9343 20.4619 73.8055 21.6549C72.9747 22.5326 72.5687 23.3902 72.5687 24.2671C72.5687 26.5059 73.3528 27.1394 78.4269 29.0004C79.7583 29.4886 79.4777 30.7153 77.9976 30.8774C77.3741 30.9458 76.2881 30.7205 75.5849 30.3771C74.8817 30.0337 73.8199 29.7528 73.2257 29.7528H72.1448V25.7243C72.1448 21.0582 71.7947 20.1477 70.0001 20.1477C69.0298 20.1477 68.636 20.3882 68.3194 21.1742ZM42.7437 24.4044C40.4815 26.5407 41.9413 30.5532 44.9805 30.5532C48.1383 30.5532 49.5091 26.3226 47.0515 24.161C45.7761 23.0388 44.0895 23.1341 42.7437 24.4044ZM57.4587 24.45C56.5397 25.3849 56.4092 25.8191 56.5893 27.3359C56.7309 28.5257 57.1136 29.3598 57.7384 29.8372C60.3473 31.8319 63.9354 29.2081 63.0669 25.9408C62.3662 23.3042 59.3682 22.5073 57.4587 24.45ZM29.6522 28.184C28.8006 28.6522 28.6696 30.1658 29.419 30.8734C30.7377 32.1184 33.9968 30.7813 33.9968 28.9952C33.9968 27.7881 31.2908 27.2831 29.6522 28.184ZM63.4666 36.1362C62.6722 37.5865 62.6265 40.1559 63.3776 41.126C64.1698 42.1489 65.4825 41.7607 65.9843 40.3544C66.2196 39.6964 66.6049 39.0253 66.841 38.8636C67.111 38.6787 67.0737 38.5674 66.7405 38.5634C66.4493 38.5602 66.2107 38.1472 66.2107 37.6462C66.2107 36.6572 65.1302 34.9555 64.5021 34.9555C64.288 34.9555 63.8222 35.487 63.4666 36.1362ZM42.4106 36.5564C41.8684 38.0248 40.7787 38.1584 40.7787 36.7565C40.7787 36.2062 40.5879 35.756 40.3548 35.756C40.1217 35.756 39.9309 36.1033 39.9309 36.528C39.9309 36.9522 39.6313 37.5825 39.265 37.9287C38.8984 38.2745 38.7912 38.5574 39.026 38.5574C39.2612 38.5574 39.513 39.1429 39.5863 39.8581C39.7605 41.5666 40.5303 41.3645 40.6981 39.5664C40.8677 37.7518 42.0503 37.5925 42.0503 39.3843C42.0503 41.936 43.7983 43.1331 44.6041 41.1328C45.2174 39.6092 45.0746 39.3991 44.3201 40.7142C43.3261 42.4467 42.8196 41.3053 43.1409 38.0572C43.4253 35.1817 43.1371 34.5893 42.4106 36.5564ZM47.3969 35.6027C47.7093 35.7243 47.7975 36.7277 47.6576 38.5726C47.466 41.1056 47.5194 41.3589 48.2455 41.3589C48.9568 41.3589 49.0441 41.0307 49.0441 38.3573C49.0441 35.4142 49.0233 35.3565 47.9844 35.3874C47.4016 35.4046 47.1371 35.5014 47.3969 35.6027ZM69.3515 35.8144C69.1388 36.1398 69.3943 36.1914 70.2319 35.9933L71.4124 35.7135L71.1305 37.7198C70.7435 40.4737 71.1352 41.7591 72.3614 41.7591C73.0705 41.7591 73.4592 41.4186 73.7987 40.4989C74.4952 38.6131 74.318 38.1356 73.5614 39.8581C72.5407 42.1814 71.9918 41.7371 72.3245 38.8576C72.5081 37.2672 72.8662 36.1742 73.3079 35.856C73.8916 35.4358 73.6551 35.3557 71.8269 35.3557C70.6303 35.3557 69.5164 35.5623 69.3515 35.8144ZM53.3378 36.6564C53.0055 37.8271 53 40.3192 53.3281 41.126C53.6858 42.0061 54.6014 41.9164 55.3338 40.9295C55.7187 40.4104 56.0548 40.2603 56.2307 40.5293C56.7148 41.2689 58.1042 40.9983 58.6506 40.0582C59.5284 38.5478 58.7858 35.756 57.5066 35.756C56.7072 35.756 56.708 36.9818 57.5078 37.9807C58.2348 38.8876 58.3391 40.005 57.7304 40.36C57.2896 40.6173 57.1365 40.3348 56.7008 38.4574C56.3473 36.9338 55.7073 37.0807 55.3733 38.7619C54.9112 41.0868 54.3424 40.7662 54.3424 38.1808C54.3424 35.7552 53.8194 34.9611 53.3378 36.6564ZM64.5288 35.9797C64.5211 36.2126 64.7954 36.7529 65.1375 37.1803C65.4799 37.6073 65.766 37.7666 65.7733 37.5333C65.7809 37.3004 65.5066 36.7601 65.1646 36.3327C64.8221 35.9056 64.536 35.7464 64.5288 35.9797ZM57.7668 36.7897C57.7872 37.2559 57.8876 37.3508 58.0228 37.0318C58.1453 36.7429 58.1301 36.3975 57.9894 36.2646C57.8486 36.1318 57.7486 36.3679 57.7668 36.7897ZM64.0913 39.3579C64.0913 41.1636 64.7199 41.4502 65.4342 39.9702C65.7991 39.2142 65.7847 38.8372 65.3735 38.3693C64.4868 37.3608 64.0913 37.6658 64.0913 39.3579Z" fill="url(#paint0_linear_3_151)"/>
<defs>
<linearGradient id="paint0_linear_3_151" x1="43.904" y1="0.137112" x2="84.8563" y2="44.4895" gradientUnits="userSpaceOnUse">
<stop stop-color="#8CE191"/>
<stop offset="1" stop-color="#406642"/>
</linearGradient>
</defs>
</svg>
